# xmcd CD database file
#
# Track frame offsets:
#	150
#	2349
#	22482
#	38603
#	51282
#	72920
#	86791
#	109235
#	114852
#	132971
#	149534
#	170819
#	196368
#	200321
#	223095
#	239293
#
# Disc length: 3229 seconds
#
# Revision: 0
# Processed by: cddbd v1.5.2PL0 Copyright (c) Steve Scherf et al.
# Submitted via: CDex 1.51
#
DISCID=eb0c9b10
DTITLE=Randy Scott - Future
DYEAR=1999
DGENRE=Jazz
TTITLE0=Intro
TTITLE1=Closer
TTITLE2=Flow
TTITLE3=Down
TTITLE4=You
TTITLE5=Day By Day
TTITLE6=Faithful
TTITLE7=Interlude (Future)
TTITLE8=Listen
TTITLE9=Plain
TTITLE10=Hurt No More
TTITLE11=Everything
TTITLE12=Interlude (Pray)
TTITLE13=Pray
TTITLE14=Future
TTITLE15=Outro
EXTD=YEAR: 1999
EXTT0=
EXTT1=
EXTT2=
EXTT3=
EXTT4=
EXTT5=
EXTT6=
EXTT7=
EXTT8=
EXTT9=
EXTT10=
EXTT11=
EXTT12=
EXTT13=
EXTT14=
EXTT15=
PLAYORDER=
